{
    "accessors" : [
        {
            "bufferView" : 0, 
            "componentType" : 5123, 
            "count" : 1629, 
            "max" : [
                1096
            ], 
            "min" : [
                0
            ], 
            "type" : "SCALAR"
        }, 
        {
            "bufferView" : 1, 
            "componentType" : 5126, 
            "count" : 1097, 
            "max" : [
                2.060098648071289, 
                5.283066272735596, 
                0.9063119292259216
            ], 
            "min" : [
                -2.060098648071289, 
                0.014982566237449646, 
                -0.9266624450683594
            ], 
            "type" : "VEC3"
        }, 
        {
            "bufferView" : 2, 
            "componentType" : 5126, 
            "count" : 1097, 
            "max" : [
                0.9984597563743591, 
                0.9974191784858704, 
                0.9783830046653748
            ], 
            "min" : [
                -0.9984597563743591, 
                -1.0, 
                -0.9977374076843262
            ], 
            "type" : "VEC3"
        }, 
        {
            "bufferView" : 3, 
            "componentType" : 5126, 
            "count" : 1097, 
            "max" : [
                0.9996244311332703, 
                0.9996244609355927
            ], 
            "min" : [
                0.0003755539655685425, 
                0.0031803250312805176
            ], 
            "type" : "VEC2"
        }, 
        {
            "bufferView" : 4, 
            "componentType" : 5126, 
            "count" : 1097, 
            "max" : [
                1.0, 
                1.0, 
                1.0, 
                1.0
            ], 
            "min" : [
                1.0, 
                1.0, 
                1.0, 
                1.0
            ], 
            "type" : "VEC4"
        }, 
        {
            "bufferView" : 5, 
            "componentType" : 5123, 
            "count" : 1097, 
            "max" : [
                13, 
                13, 
                12, 
                12
            ], 
            "min" : [
                0, 
                0, 
                0, 
                0
            ], 
            "type" : "VEC4"
        }, 
        {
            "bufferView" : 6, 
            "componentType" : 5126, 
            "count" : 1097, 
            "max" : [
                1.0, 
                1.0, 
                0.7726779580116272, 
                0.5091403126716614
            ], 
            "min" : [
                0.0028693510685116053, 
                0.0, 
                0.0, 
                0.0
            ], 
            "type" : "VEC4"
        }, 
        {
            "bufferView" : 7, 
            "componentType" : 5123, 
            "count" : 1097, 
            "max" : [
                8, 
                0, 
                0, 
                0
            ], 
            "min" : [
                0, 
                0, 
                0, 
                0
            ], 
            "type" : "VEC4"
        }, 
        {
            "bufferView" : 8, 
            "componentType" : 5126, 
            "count" : 1097, 
            "max" : [
                0.04094335064291954, 
                0.0, 
                0.0, 
                0.0
            ], 
            "min" : [
                0.0, 
                0.0, 
                0.0, 
                0.0
            ], 
            "type" : "VEC4"
        }, 
        {
            "bufferView" : 9, 
            "componentType" : 5126, 
            "count" : 14, 
            "max" : [
                1.0, 
                0.9744476675987244, 
                0.9998011589050293, 
                0.0, 
                0.9422348141670227, 
                1.0, 
                0.9744477272033691, 
                0.0, 
                1.0, 
                0.15751837193965912, 
                1.0, 
                0.0, 
                3.2181596755981445, 
                1.9129621982574463, 
                3.214587926864624, 
                1.0
            ], 
            "min" : [
                -0.33495283126831055, 
                -0.9744477868080139, 
                -0.9960008859634399, 
                0.0, 
                -0.9422348141670227, 
                -0.9926814436912537, 
                -0.9744477868080139, 
                0.0, 
                -0.9953891038894653, 
                -0.11912216991186142, 
                -0.017129015177488327, 
                0.0, 
                -3.2143990993499756, 
                -3.7154417037963867, 
                -3.2180566787719727, 
                1.0
            ], 
            "type" : "MAT4"
        }
    ], 
    "asset" : {
        "generator" : "Khronos Blender glTF 2.0 exporter", 
        "version" : "2.0"
    }, 
    "bufferViews" : [
        {
            "buffer" : 0, 
            "byteLength" : 3258, 
            "byteOffset" : 0, 
            "target" : 34963
        }, 
        {
            "buffer" : 0, 
            "byteLength" : 13164, 
            "byteOffset" : 3260, 
            "target" : 34962
        }, 
        {
            "buffer" : 0, 
            "byteLength" : 13164, 
            "byteOffset" : 16424, 
            "target" : 34962
        }, 
        {
            "buffer" : 0, 
            "byteLength" : 8776, 
            "byteOffset" : 29588, 
            "target" : 34962
        }, 
        {
            "buffer" : 0, 
            "byteLength" : 17552, 
            "byteOffset" : 38364, 
            "target" : 34962
        }, 
        {
            "buffer" : 0, 
            "byteLength" : 8776, 
            "byteOffset" : 55916, 
            "target" : 34962
        }, 
        {
            "buffer" : 0, 
            "byteLength" : 17552, 
            "byteOffset" : 64692, 
            "target" : 34962
        }, 
        {
            "buffer" : 0, 
            "byteLength" : 8776, 
            "byteOffset" : 82244, 
            "target" : 34962
        }, 
        {
            "buffer" : 0, 
            "byteLength" : 17552, 
            "byteOffset" : 91020, 
            "target" : 34962
        }, 
        {
            "buffer" : 0, 
            "byteLength" : 896, 
            "byteOffset" : 108572
        }
    ], 
    "buffers" : [
        {
            "byteLength" : 109468, 
            "uri" : "npc.bin"
        }
    ], 
    "images" : [
        {
            "uri" : "texture.png"
        }
    ], 
    "materials" : [
        {
            "name" : "Material.001", 
            "pbrMetallicRoughness" : {
                "baseColorFactor" : [
                    0.6400000190734865, 
                    0.6400000190734865, 
                    0.6400000190734865, 
                    1.0
                ], 
                "baseColorTexture" : {
                    "index" : 0
                }, 
                "metallicFactor" : 0.0
            }
        }
    ], 
    "meshes" : [
        {
            "name" : "Cube.001", 
            "primitives" : [
                {
                    "attributes" : {
                        "COLOR_0" : 4, 
                        "JOINTS_0" : 5, 
                        "JOINTS_1" : 7, 
                        "NORMAL" : 2, 
                        "POSITION" : 1, 
                        "TEXCOORD_0" : 3, 
                        "WEIGHTS_0" : 6, 
                        "WEIGHTS_1" : 8
                    }, 
                    "indices" : 0, 
                    "material" : 0
                }
            ]
        }
    ], 
    "nodes" : [
        {
            "children" : [
                1, 
                2
            ], 
            "name" : "Armature"
        }, 
        {
            "mesh" : 0, 
            "name" : "Cube", 
            "skin" : 0
        }, 
        {
            "children" : [
                3, 
                12, 
                14
            ], 
            "name" : "Armature_center", 
            "rotation" : [
                0.079006128013134, 
                1.188366738347213e-07, 
                9.418260837890102e-09, 
                0.9968741536140442
            ], 
            "translation" : [
                9.230192141612996e-17, 
                1.9304941892623901, 
                -0.06651457399129868
            ]
        }, 
        {
            "children" : [
                4, 
                6, 
                9
            ], 
            "name" : "Armature_chest", 
            "rotation" : [
                -0.07900609076023102, 
                -1.1883668804557601e-07, 
                -9.418259949711683e-09, 
                0.9968741536140442
            ], 
            "scale" : [
                1.0, 
                0.9999998807907104, 
                0.9999998807907104
            ], 
            "translation" : [
                8.167494865108857e-15, 
                0.5489455461502075, 
                -2.9802322387695312e-08
            ]
        }, 
        {
            "children" : [
                5
            ], 
            "name" : "Armature_nek", 
            "rotation" : [
                -7.450580596923828e-09, 
                -1.1911400820763599e-22, 
                -1.7763566276420137e-15, 
                1.0
            ], 
            "translation" : [
                4.330238505004228e-22, 
                0.8383760452270508, 
                1.322717935181572e-09
            ]
        }, 
        {
            "name" : "Armature_head", 
            "rotation" : [
                0.0, 
                0.0, 
                -1.0587911840678754e-22, 
                1.0
            ], 
            "translation" : [
                -1.4636006164995018e-23, 
                0.30420780181884766, 
                0.0
            ]
        }, 
        {
            "children" : [
                7
            ], 
            "name" : "Armature_Luarm", 
            "rotation" : [
                -0.016162950545549393, 
                0.13575038313865662, 
                -0.9801021218299866, 
                0.1439114809036255
            ], 
            "scale" : [
                1.0000001192092896, 
                1.0, 
                1.0
            ], 
            "translation" : [
                0.3502039313316345, 
                0.7181031703948975, 
                0.011062712408602238
            ]
        }, 
        {
            "children" : [
                8
            ], 
            "name" : "Armature_Llarm", 
            "rotation" : [
                0.111237533390522, 
                -0.6588413715362549, 
                -0.3123432695865631, 
                0.6752747893333435
            ], 
            "scale" : [
                1.0, 
                1.0, 
                0.9999999403953552
            ], 
            "translation" : [
                -1.739077504225861e-07, 
                0.731901228427887, 
                -1.1811778222181601e-09
            ]
        }, 
        {
            "name" : "Armature_Lhand", 
            "rotation" : [
                -0.16451306641101837, 
                0.016818827018141747, 
                -0.20486830174922943, 
                0.9647184014320374
            ], 
            "translation" : [
                -1.945807071024319e-09, 
                0.6543791890144348, 
                1.8004224955348036e-07
            ]
        }, 
        {
            "children" : [
                10
            ], 
            "name" : "Armature_Ruarm", 
            "rotation" : [
                -0.004328095819801092, 
                -0.13516926765441895, 
                0.9773056507110596, 
                0.16304658353328705
            ], 
            "scale" : [
                1.0000001192092896, 
                1.0, 
                1.0
            ], 
            "translation" : [
                -0.33897650241851807, 
                0.7181031703948975, 
                0.011062712408602238
            ]
        }, 
        {
            "children" : [
                11
            ], 
            "name" : "Armature_Rlarm", 
            "rotation" : [
                0.42380988597869873, 
                -0.6655606031417847, 
                -0.12253758311271667, 
                0.6019957065582275
            ], 
            "scale" : [
                1.0, 
                1.0, 
                0.9999999403953552
            ], 
            "translation" : [
                7.297900594949169e-08, 
                0.7319012880325317, 
                -1.4683205762366924e-09
            ]
        }, 
        {
            "name" : "Armature_Rhand", 
            "rotation" : [
                0.07802018523216248, 
                0.023912064731121063, 
                0.06448481231927872, 
                0.9945766925811768
            ], 
            "scale" : [
                0.9999999403953552, 
                1.0, 
                1.0
            ], 
            "translation" : [
                -1.206004185405618e-10, 
                0.6543791890144348, 
                -2.495432056548452e-07
            ]
        }, 
        {
            "children" : [
                13
            ], 
            "name" : "Armature_Luleg", 
            "rotation" : [
                0.6714395880699158, 
                -0.169108048081398, 
                -0.6834592819213867, 
                0.2312028557062149
            ], 
            "scale" : [
                0.9999998807907104, 
                0.9999998807907104, 
                0.9999996423721313
            ], 
            "translation" : [
                0.26268506050109863, 
                -0.07790393382310867, 
                0.036968544125556946
            ]
        }, 
        {
            "name" : "Armature_Llleg", 
            "rotation" : [
                -0.4029771685600281, 
                -0.9144614338874817, 
                -0.03290422633290291, 
                0.01694498583674431
            ], 
            "scale" : [
                0.9999999403953552, 
                1.0, 
                1.0
            ], 
            "translation" : [
                -1.3969838619232178e-08, 
                0.8787281513214111, 
                6.506761351943169e-09
            ]
        }, 
        {
            "children" : [
                15
            ], 
            "name" : "Armature_Ruleg", 
            "rotation" : [
                0.6892122626304626, 
                -0.22973880171775818, 
                -0.6655334830284119, 
                0.17109011113643646
            ], 
            "scale" : [
                0.9999997019767761, 
                0.9999998211860657, 
                0.9999988675117493
            ], 
            "translation" : [
                -0.2514578104019165, 
                -0.07790393382310867, 
                0.0369684211909771
            ]
        }, 
        {
            "name" : "Armature_Rlleg", 
            "rotation" : [
                0.40317410230636597, 
                0.9142196178436279, 
                -0.030400676652789116, 
                0.026995839551091194
            ], 
            "scale" : [
                0.9999999403953552, 
                0.9999998807907104, 
                0.9999999403953552
            ], 
            "translation" : [
                -5.820766091346741e-09, 
                0.8787280321121216, 
                2.2118911147117615e-08
            ]
        }
    ], 
    "samplers" : [
        {}
    ], 
    "scene" : 0, 
    "scenes" : [
        {
            "name" : "Scene", 
            "nodes" : [
                0
            ]
        }
    ], 
    "skins" : [
        {
            "inverseBindMatrices" : 9, 
            "joints" : [
                2, 
                3, 
                4, 
                5, 
                6, 
                7, 
                8, 
                9, 
                10, 
                11, 
                12, 
                13, 
                14, 
                15
            ], 
            "skeleton" : 0
        }
    ], 
    "textures" : [
        {
            "sampler" : 0, 
            "source" : 0
        }
    ]
}
